<svg width="102" height="18" viewBox="0 0 102 18" fill="none" xmlns="http://www.w3.org/2000/svg">
<path d="M12.7618 0.92H0.44975V3.176H5.36975V17H7.81775V3.176H12.7618V0.92ZM15.7316 17V10.088C15.7316 8.36 16.6916 7.28 18.2756 7.28C18.9236 7.28 19.5956 7.448 20.1716 7.784V5.432C19.5716 5.144 18.8036 5 18.0596 5C14.9876 5 13.3556 7.136 13.3556 9.992V17H15.7316ZM26.3503 17.288C28.2703 17.288 29.8303 16.376 30.7183 14.936V17H32.9743V11.096C32.9743 7.592 30.2623 4.952 26.7103 4.952C23.1343 4.952 20.4462 7.736 20.4462 11.096C20.4462 14.504 22.9423 17.288 26.3503 17.288ZM26.7103 15.032C24.5263 15.032 22.8223 13.256 22.8223 11.12C22.8223 8.96 24.5263 7.184 26.7103 7.184C28.9183 7.184 30.5983 8.96 30.5983 11.12C30.5983 13.256 28.9183 15.032 26.7103 15.032ZM37.7514 15.464C38.2074 16.688 39.1194 17.312 40.2234 17.312C41.3754 17.312 42.2154 16.688 42.6714 15.464L46.4874 5.24H43.9674L40.5114 14.816C40.4874 14.936 40.3914 15.056 40.2234 15.056C40.0794 15.056 39.9834 14.936 39.9594 14.816L36.5034 5.24H33.9594L37.7514 15.464ZM52.7071 17.288C54.6271 17.288 56.1871 16.376 57.0751 14.936V17H59.3311V11.096C59.3311 7.592 56.6191 4.952 53.0671 4.952C49.4911 4.952 46.8031 7.736 46.8031 11.096C46.8031 14.504 49.2991 17.288 52.7071 17.288ZM53.0671 15.032C50.8831 15.032 49.1791 13.256 49.1791 11.12C49.1791 8.96 50.8831 7.184 53.0671 7.184C55.2751 7.184 56.9551 8.96 56.9551 11.12C56.9551 13.256 55.2751 15.032 53.0671 15.032Z" fill="#00E569"/>
<path d="M67.8466 7.232C70.1986 7.232 71.3986 9.128 71.3986 11.336V17H73.7746V11.048C73.7746 7.64 71.6866 4.952 67.8466 4.952C64.0546 4.952 62.0146 7.64 62.0146 11.072V17H64.3906V11.312C64.3906 9.128 65.5426 7.232 67.8466 7.232ZM81.9547 17.264C84.2587 17.264 86.1547 16.184 87.1867 14.168L85.3627 13.232C84.6667 14.528 83.3707 15.152 81.9307 15.152C79.8187 15.152 78.2827 13.736 78.0187 11.72H87.4267V10.76C87.4267 7.472 85.2187 4.904 81.6667 4.904C78.1387 4.904 75.7147 7.664 75.7147 11.048C75.7147 14.672 78.3787 17.264 81.9547 17.264ZM78.1147 10.184C78.3547 8.432 79.6507 7.04 81.6427 7.04C83.5867 7.04 84.9547 8.312 85.0507 10.184H78.1147ZM91.685 17L94.085 13.448C94.349 13.04 94.541 12.608 94.661 12.152H95.837C95.957 12.608 96.149 13.04 96.413 13.448L98.813 17H101.501L98.525 12.536C98.165 12.008 97.997 11.552 97.997 11.12C97.997 10.712 98.141 10.304 98.477 9.8L101.501 5.24H98.789L96.413 8.816C96.173 9.176 96.005 9.584 95.885 9.992H94.613C94.517 9.584 94.325 9.176 94.085 8.816L91.685 5.24H88.997L92.021 9.8C92.357 10.304 92.501 10.712 92.501 11.12C92.501 11.552 92.333 12.008 91.973 12.536L88.997 17H91.685Z" fill="white"/>
</svg>
